<svg width="24" height="24" viewBox="0 0 24 24" fill="none" xmlns="http://www.w3.org/2000/svg">
<path fill-rule="evenodd" clip-rule="evenodd" d="M5.53999 21.047C4.92999 21.047 4.35999 20.837 3.94999 20.447C3.42999 19.957 3.17999 19.217 3.26999 18.417L3.63999 15.177C3.70999 14.567 4.07999 13.757 4.50999 13.317L11.3421 6.08546C11.3534 6.07261 11.3652 6.06013 11.3774 6.04804L12.72 4.62697C14.77 2.45697 16.91 2.39697 19.08 4.44697C21.25 6.49697 21.31 8.63697 19.26 10.807L11.05 19.497C10.63 19.947 9.84999 20.367 9.23999 20.467L6.01999 21.017C5.95895 21.0206 5.9005 21.0254 5.84324 21.0302C5.74099 21.0387 5.64254 21.047 5.53999 21.047ZM5.59999 14.337L11.5184 8.06534C12.258 10.0344 13.8657 11.5562 15.8709 12.1899L9.94999 18.457C9.74999 18.667 9.26999 18.927 8.97999 18.977L5.75999 19.527C5.42999 19.577 5.15999 19.517 4.97999 19.347C4.79999 19.177 4.71999 18.907 4.75999 18.577L5.12999 15.337C5.16999 15.047 5.39999 14.547 5.59999 14.337ZM18.16 9.76697L17.055 10.9366C14.9019 10.5714 13.1855 8.93322 12.7129 6.79957L13.81 5.63697C14.49 4.91697 15.16 4.43697 15.93 4.43697C16.55 4.43697 17.24 4.75697 18.04 5.52697C19.85 7.22697 19.4 8.44697 18.16 9.76697Z" fill="#797979"/>
</svg>
